#!OML:ASF E:\emotionWalksFemale\Project 1\Capture day 1\Session 1\Female1.ASF
:FULLY-SPECIFIED
:DEGREES
2862
root 10.5688 15.188 39.7435 362.993 181.952 -356.787
lowerback 9.26372 2.03613 3.36697
upperback -2.92405 3.18175 0.857739
thorax -8.17006 1.38653 -1.49251
lowerneck -2.72632 10.0986 5.65805
upperneck 6.4787 13.38 -3.15314
head 3.22412 6.66993 -1.43764
rclavicle 3.17124e-014 1.19271e-014
rhumerus -37.5023 -7.45089 -53.9162
rradius 39.2284
rwrist 9.98543
rhand 5.01502 -57.4549
rfingers 7.12502
rthumb 30.3843 275.028
lclavicle 3.17124e-014 1.19271e-014
lhumerus -28.3629 29.3604 60.7898
lradius 41.8204
lwrist 6.48746
lhand -22.4176 -34.7162
lfingers 7.12502
lthumb 4.00555 -4.77413
rfemur -5.877 1.77119 32.0649
rtibia 24.2424
rfoot -41.7109 -39.7586
rtoes 37.9254
lfemur -24.6245 -6.32826 -19.3139
ltibia 44.6718
lfoot -26.927 12.0904
ltoes -28.3692
2863
root 10.5538 15.2024 39.7552 363.022 182.447 -356.69
lowerback 9.29422 2.01893 3.35793
upperback -2.90849 3.16142 0.906953
thorax -8.17525 1.37808 -1.43323
lowerneck -2.88952 9.85021 5.21126
upperneck 6.49135 13.0474 -2.91798
head 3.18531 6.49992 -1.30075
rclavicle 1.92712e-014 3.77691e-015
rhumerus -36.6179 -8.53894 -53.8553
rradius 39.7912
rwrist 9.28542
rhand 4.90262 -57.0133
rfingers 7.12502
rthumb 30.2771 275.45
lclavicle 1.92712e-014 3.77691e-015
lhumerus -29.5489 29.7337 59.4776
lradius 41.7184
lwrist 6.6734
lhand -21.9116 -34.0896
lfingers 7.12502
lthumb 4.4941 -4.15725
rfemur -5.88933 1.61902 32.1298
rtibia 24.0667
rfoot -41.6071 -39.9386
rtoes 38.0962
lfemur -24.4494 -6.41051 -18.6756
ltibia 44.5925
lfoot -27.1489 12.3956
ltoes -26.0966
2864
root 10.5365 15.2134 39.7645 363.194 182.946 -356.685
lowerback 9.0893 2.00921 3.28884
upperback -2.87645 3.12914 0.889063
thorax -8.02557 1.36972 -1.39893
lowerneck -3.37098 9.63751 4.84073
upperneck 6.85567 12.7408 -2.56797
head 3.32834 6.3438 -1.11207
rclavicle 1.99499e-014 7.95139e-016
rhumerus -35.6572 -9.69548 -53.9806
rradius 40.3471
rwrist 8.74408
rhand 4.77194 -56.8375
rfingers 7.12502
rthumb 30.1524 275.603
lclavicle 1.99499e-014 7.95139e-016
lhumerus -30.5481 29.9965 58.2881
lradius 41.5308
lwrist 6.66296
lhand -21.3178 -33.4964
lfingers 7.12502
lthumb 5.06748 -3.57696
rfemur -6.009 1.75082 32.1046
rtibia 23.8608
rfoot -42.0105 -40.1117
rtoes 38.6104
lfemur -24.41 -6.68579 -18.1248
ltibia 44.4439
lfoot -27.2273 13.2055
ltoes -24.8306
2865
root 10.5188 15.2148 39.7727 363.338 183.411 -356.7
lowerback 8.92985 2.0053 3.14553
upperback -2.8531 3.0988 0.870417
thorax -7.91529 1.36507 -1.3266
lowerneck -3.72986 9.39538 4.73611
upperneck 7.10579 12.4015 -2.45101
head 3.45118 6.17259 -1.05192
rclavicle -1.15637e-014 -1.35671e-014
rhumerus -34.6997 -10.778 -54.2388
rradius 40.8726
rwrist 8.28177
rhand 4.41483 -57.0081
rfingers 7.12502
rthumb 29.8117 275.371
lclavicle -1.15637e-014 -1.35671e-014
lhumerus -31.6045 30.0622 57.0839
lradius 41.3802
lwrist 6.46468
lhand -20.9765 -33.0383
lfingers 7.12502
lthumb 5.39705 -3.12701
rfemur -6.08539 2.23657 32.0933
rtibia 23.6869
rfoot -42.8437 -40.4312
rtoes 39.0477
lfemur -24.2883 -6.69649 -17.6467
ltibia 44.2314
lfoot -26.8835 14.2286
ltoes -24.9023
2866
root 10.5012 15.2161 39.7791 363.368 183.743 -356.69
lowerback 8.94051 2.0503 3.04228
upperback -2.85536 3.14725 0.857654
thorax -7.92635 1.39373 -1.29029
lowerneck -3.83011 9.13364 4.59554
upperneck 7.16901 12.0471 -2.33958
head 3.45821 5.99586 -1.00707
rclavicle -1.01722e-014 -2.52953e-014
rhumerus -33.8032 -11.6339 -54.5675
rradius 41.2729
rwrist 7.93617
rhand 3.95824 -57.0593
rfingers 7.12502
rthumb 29.3758 275.242
lclavicle -1.01722e-014 -2.52953e-014
lhumerus -32.8433 29.8171 55.9314
lradius 41.3677
lwrist 6.4327
lhand -20.8337 -32.799
lfingers 7.12502
lthumb 5.53493 -2.89131
rfemur -6.04987 2.72728 32.1075
rtibia 23.5525
rfoot -43.4743 -40.7565
rtoes 40.0953
lfemur -23.8698 -6.83588 -17.1648
ltibia 43.9495
lfoot -26.8749 15.0678
ltoes -23.6486
2867
root 10.4808 15.2223 39.7858 363.389 184 -356.731
lowerback 9.02074 2.10266 2.92398
upperback -2.89816 3.20506 0.798939
thorax -8.01928 1.42473 -1.29959
lowerneck -3.86032 8.90286 4.38602
upperneck 7.2371 11.7303 -2.10105
head 3.44122 5.84075 -0.911472
rclavicle 1.03741e-014 8.29926e-015
rhumerus -32.8248 -12.5192 -55.0145
rradius 41.3539
rwrist 7.82241
rhand 3.44508 -57.0638
rfingers 7.12502
rthumb 28.8858 275.153
lclavicle 1.03741e-014 8.29926e-015
lhumerus -34.1699 29.4076 54.8384
lradius 41.4383
lwrist 6.43096
lhand -20.1174 -32.4975
lfingers 7.12502
lthumb 6.22647 -2.60905
rfemur -6.02236 3.05743 32.0244
rtibia 23.4635
rfoot -44.0412 -40.8417
rtoes 40.9394
lfemur -23.4019 -7.28004 -16.7298
ltibia 43.5716
lfoot -26.9207 16.2476
ltoes -23.4429
2868
root 10.4554 15.2322 39.7919 363.467 184.427 -356.767
lowerback 8.97203 2.06448 2.77598
upperback -2.92274 3.13651 0.825237
thorax -8.02928 1.3991 -1.17712
lowerneck -3.81012 8.72339 4.0651
upperneck 7.17076 11.4994 -1.9341
head 3.36412 5.72415 -0.822937
rclavicle -1.13012e-014 -1.02871e-014
rhumerus -31.6969 -13.282 -55.4672
rradius 41.3927
rwrist 7.80707
rhand 3.39446 -56.9936
rfingers 7.12502
rthumb 28.8374 275.215
lclavicle -1.13012e-014 -1.02871e-014
lhumerus -35.5673 29.0689 53.9154
lradius 41.5638
lwrist 6.33104
lhand -19.3487 -32.2511
lfingers 7.12502
lthumb 6.96853 -2.38577
rfemur -6.03841 3.31445 31.9252
rtibia 23.3099
rfoot -44.8239 -40.9418
rtoes 41.5186
lfemur -23.1207 -7.81494 -16.2582
ltibia 43.1845
lfoot -26.5677 17.5698
ltoes -24.1515
2869
root 10.4269 15.2427 39.7941 363.45 184.867 -357.035
lowerback 8.87325 2.01753 2.52091
upperback -2.81643 3.03362 0.713284
thorax -7.86751 1.36516 -1.13054
lowerneck -3.75295 8.49203 4.00024
upperneck 6.88712 11.2005 -1.98165
head 3.24372 5.5756 -0.852785
rclavicle 1.37286e-014 2.06239e-015
rhumerus -30.568 -13.9912 -56.1413
rradius 41.56
rwrist 7.80702
rhand 3.4741 -56.9869
rfingers 7.12502
rthumb 28.9135 275.235
lclavicle 1.37286e-014 2.06239e-015
lhumerus -36.836 28.125 53.2741
lradius 41.9005
lwrist 6.70735
lhand -19.2428 -31.9244
lfingers 7.12502
lthumb 7.07075 -2.06248
rfemur -5.86581 3.69072 31.5979
rtibia 23.0744
rfoot -45.5758 -41.3404
rtoes 42.1571
lfemur -22.6556 -8.49534 -16.0626
ltibia 42.7673
lfoot -26.4749 18.6154
ltoes -22.6353
2870
root 10.3979 15.2485 39.7952 363.543 185.21 -356.975
lowerback 8.72564 2.00939 2.59702
upperback -2.81208 3.02311 0.661118
thorax -7.77103 1.35711 -1.22006
lowerneck -3.51124 8.18919 3.96431
upperneck 6.39745 10.8111 -2.0585
head 3.01985 5.38422 -0.913078
rclavicle -1.14643e-014 -7.8023e-015
rhumerus -29.5673 -14.5141 -56.9298
rradius 41.6144
rwrist 7.58493
rhand 2.60794 -57.1642
rfingers 7.12502
rthumb 28.0859 274.918
lclavicle -1.14643e-014 -7.8023e-015
lhumerus -38.2146 26.4573 52.8024
lradius 42.3698
lwrist 7.37239
lhand -18.9516 -31.3985
lfingers 7.12502
lthumb 7.35187 -1.54623
rfemur -5.79755 4.0589 31.6177
rtibia 22.7757
rfoot -46.0082 -41.7628
rtoes 42.9713
lfemur -22.3519 -8.99591 -15.4931
ltibia 42.3705
lfoot -26.9369 18.9225
ltoes -18.4269
2871
root 10.3676 15.2574 39.7951 363.628 185.444 -356.816
lowerback 8.70879 2.01298 2.69459
upperback -2.89653 3.04129 0.70228
thorax -7.84889 1.35892 -1.23505
lowerneck -3.26463 7.97081 3.74796
upperneck 6.07536 10.5322 -1.96351
head 2.83418 5.24694 -0.878674
rclavicle -1.07301e-014 8.88319e-016
rhumerus -28.5298 -14.7867 -57.7183
rradius 41.481
rwrist 7.39885
rhand 2.06008 -57.1338
rfingers 7.12502
rthumb 27.562 274.864
lclavicle -1.07301e-014 8.88319e-016
lhumerus -39.6238 25.6543 52.0878
lradius 42.3652
lwrist 7.04274
lhand -18.0874 -31.3291
lfingers 7.12502
lthumb 8.18602 -1.50766
rfemur -5.73653 4.48668 31.714
rtibia 22.5213
rfoot -46.4738 -42.015
rtoes 43.7526
lfemur -22.0357 -9.4113 -14.8408
ltibia 41.9354
lfoot -27.3739 19.0606
ltoes -13.5586
